<mxfile host="app.diagrams.net" modified="2023-06-08T00:58:08.883Z" agent="Mozilla/5.0 (Windows NT 10.0; Win64; x64) AppleWebKit/537.36 (KHTML, like Gecko) Chrome/114.0.0.0 Safari/537.36" version="21.3.6" etag="964nP1tU8e57Cdnx0t2M" type="github">
  <diagram name="페이지-1" id="w0zcGt9oVDPHknOuhHk2">
    <mxGraphModel>
      <root>
        <mxCell id="0" />
        <mxCell id="1" parent="0" />
      </root>
    </mxGraphModel>
  </diagram>
</mxfile>
